<svg width="50" height="27" viewBox="0 0 50 27" fill="none" xmlns="http://www.w3.org/2000/svg">
<g id="Logo" clip-path="url(#clip0_5_3292)">
<path id="Vector" d="M49.9961 9.60268C50.0013 9.56515 50.0013 9.52722 49.9961 9.48969C50.001 9.45911 50.001 9.42793 49.9961 9.39728L49.6257 6.7579C49.5723 6.44212 49.4294 6.14699 49.2131 5.90549L49.1495 5.8336L49.0332 5.72062L42.6208 0.359707L42.8007 0.53431C42.6535 0.363415 42.4688 0.226722 42.2601 0.1343C42.0513 0.0418773 41.8238 -0.00392627 41.5944 0.000268257H39.6474C39.3308 -0.00581994 39.0215 0.0918769 38.7692 0.277561C38.5042 0.0929954 38.1853 -0.00420173 37.8592 0.000268257H35.9122C35.6568 -0.00375276 35.4049 0.0577562 35.1819 0.178585C34.959 0.299414 34.7729 0.475274 34.6424 0.688351C34.4413 0.992689 34.3658 1.35937 34.4308 1.71535L34.6742 3.37908C34.5129 3.29037 34.3304 3.24434 34.1451 3.24558H24.717C24.3787 3.24764 24.0483 3.34387 23.7647 3.52286C23.4904 3.68946 23.2703 3.92802 23.1298 4.21094L22.3997 3.60502C22.1123 3.34696 21.733 3.20709 21.3415 3.21477H6.54867C6.2092 3.22077 5.87728 3.31281 5.58579 3.48178C5.18699 3.70833 4.89474 4.07668 4.77099 4.50878L0.0728333 19.7597C-0.0149502 20.011 -0.0235856 20.282 0.0480329 20.5381C0.119651 20.7941 0.268281 21.0238 0.474933 21.1975C0.52878 21.2418 0.585319 21.283 0.64424 21.3207C0.64424 21.3207 0.548992 21.2591 0.496084 21.2078L6.90847 26.5789C7.17972 26.8213 7.53438 26.9568 7.90306 26.9589H22.8124C23.1528 26.9503 23.485 26.8547 23.7753 26.6816C23.9394 26.5945 24.0863 26.4798 24.2091 26.3427L24.262 26.2708L24.3467 26.1681L24.4101 26.0551L25.1085 26.6406C25.3759 26.8733 25.7228 27.0013 26.082 27H41.023C41.3631 26.989 41.6947 26.8936 41.9859 26.7227C42.1464 26.6303 42.2924 26.5162 42.4198 26.3838L42.4726 26.3119L42.5573 26.2092C42.6023 26.1442 42.6413 26.0755 42.6737 26.0038C42.7083 25.9415 42.7366 25.8762 42.7583 25.8087L47.0438 11.8826V11.7594C47.0491 11.7116 47.0491 11.6634 47.0438 11.6156V11.5232C47.049 11.4925 47.049 11.4614 47.0438 11.4307C47.0486 11.3658 47.0486 11.3006 47.0438 11.2356H48.4194C48.5391 11.2462 48.6595 11.2462 48.7792 11.2356H48.8745C48.9519 11.2132 49.0265 11.1821 49.0967 11.1432H49.2025L49.3929 10.9994L49.4776 10.9378L49.6257 10.7529V10.6913L49.7315 10.5167C49.7256 10.4827 49.7256 10.448 49.7315 10.414C49.7259 10.3974 49.7259 10.3793 49.7315 10.3627C49.754 10.3025 49.7717 10.2406 49.7844 10.1778C49.7795 10.1575 49.7795 10.1364 49.7844 10.1162C49.7793 10.0856 49.7793 10.0543 49.7844 10.0237C49.7844 10.0237 49.9961 9.6232 49.9961 9.60268Z" fill="black"/>
<path id="Vector_2" d="M21.7754 4.38556C21.8316 4.43486 21.8708 4.49968 21.8878 4.5713C21.9049 4.64292 21.8988 4.71788 21.8706 4.78608L17.1831 20.0267C17.1241 20.1931 17.0033 20.3322 16.8445 20.417C16.7152 20.5009 16.5656 20.5504 16.4106 20.5608H1.51194C1.38471 20.5548 1.26417 20.5037 1.17333 20.417C1.1193 20.3685 1.08137 20.3054 1.06441 20.236C1.04744 20.1664 1.05222 20.0936 1.0781 20.0267L5.77626 4.78608C5.8304 4.61759 5.94736 4.47476 6.10428 4.38556C6.23565 4.30767 6.38452 4.26186 6.53813 4.25204H21.4368C21.563 4.25322 21.684 4.30096 21.7754 4.38556ZM13.998 16.956L16.8021 7.85679H8.95072L6.15718 16.956H13.998ZM35.9968 4.5396C36.0477 4.59693 36.1112 4.6424 36.1827 4.67263C36.2541 4.70285 36.3316 4.71706 36.4095 4.71419H38.3459C38.4197 4.71489 38.4923 4.69734 38.5572 4.6632C38.622 4.62906 38.6767 4.57944 38.7163 4.51906C38.7506 4.47189 38.775 4.41849 38.7877 4.36203C38.8004 4.30558 38.8013 4.24723 38.7903 4.19043L38.4094 1.47915C38.3731 1.35367 38.308 1.2378 38.219 1.14024C38.1681 1.08291 38.1046 1.03744 38.0331 1.00721C37.9617 0.976988 37.8841 0.962786 37.8063 0.965655H35.8699C35.7961 0.964959 35.7234 0.982509 35.6586 1.01665C35.5938 1.05079 35.5391 1.1004 35.4995 1.16079C35.4254 1.30457 35.3937 1.39699 35.4254 1.47915L35.817 4.19043C35.837 4.32244 35.9001 4.44477 35.9968 4.5396ZM42.1447 1.45861C42.1084 1.33312 42.0432 1.21725 41.9542 1.1197C41.9055 1.06258 41.8438 1.01712 41.7741 0.986843C41.7044 0.956569 41.6284 0.942286 41.5521 0.945114H39.6051C39.5326 0.94311 39.4609 0.960187 39.3975 0.994538C39.3342 1.02889 39.2816 1.07924 39.2454 1.14024C39.175 1.23135 39.1445 1.3458 39.1607 1.45861L39.5522 4.16988C39.5768 4.30051 39.6391 4.42163 39.7321 4.51906C39.7838 4.57527 39.8475 4.61998 39.9188 4.65011C39.99 4.68024 40.067 4.69509 40.1447 4.69364H42.0918C42.1641 4.69457 42.2354 4.67704 42.2985 4.64279C42.3617 4.60854 42.4145 4.5588 42.4515 4.49852C42.4884 4.45258 42.5141 4.3992 42.5269 4.34234C42.5397 4.28547 42.5393 4.22655 42.5256 4.16988L42.1447 1.45861ZM34.2932 5.5666L34.1027 4.2315H24.717C24.5697 4.23938 24.4271 4.28549 24.3043 4.36501C24.2264 4.40626 24.1586 4.46343 24.1056 4.53258C24.0527 4.60173 24.0158 4.68121 23.9975 4.76554L23.2145 7.31247C23.1832 7.37612 23.1725 7.44754 23.1838 7.5172C23.1952 7.58686 23.228 7.65152 23.2779 7.70276C23.3672 7.78416 23.4836 7.83161 23.606 7.83627H35.0128L32.2087 16.9355H20.8336C20.687 16.9387 20.5441 16.9814 20.421 17.0587C20.2713 17.1509 20.162 17.2936 20.1141 17.4592L19.3205 20.0062C19.2946 20.0715 19.2878 20.1425 19.3009 20.2114C19.314 20.2803 19.3463 20.3443 19.3945 20.3964C19.481 20.4833 19.5984 20.5347 19.7226 20.5402H34.6636C34.8181 20.5273 34.967 20.4779 35.0974 20.3964C35.2536 20.3112 35.3709 20.1718 35.4254 20.0062L39.7215 6.0801H34.8858C34.8091 6.08156 34.7329 6.06774 34.6619 6.03947C34.5909 6.01121 34.5267 5.9691 34.4731 5.91577C34.3856 5.82264 34.3238 5.70962 34.2932 5.58714V5.5666Z" fill="white"/>
</g>
<defs>
<clipPath id="clip0_5_3292">
<rect width="50" height="27" fill="white"/>
</clipPath>
</defs>
</svg>
