<svg width="60" height="49" viewBox="0 0 60 49" fill="none" xmlns="http://www.w3.org/2000/svg">
<g id="Vector">
<path d="M59.4998 31C59.4998 40.9411 51.4409 49 41.4998 49L14.4998 49C11.7383 49 9.49977 46.7614 9.49977 44L9.49977 10C9.49977 4.47715 13.9769 -4.82823e-07 19.4998 0L54.4998 3.0598e-06C57.2612 3.30121e-06 59.4998 2.23858 59.4998 5L59.4998 31Z" fill="#E8F5E9"/>
<path d="M21.4161 12.0109C21.1041 12.0109 20.8504 11.7576 20.8504 11.4452V10.4839C20.8504 10.1719 21.1037 9.91822 21.4161 9.91822C21.7281 9.91822 21.9818 10.1715 21.9818 10.4839V11.4452C21.9818 11.7576 21.7281 12.0109 21.4161 12.0109Z" fill="#103E13"/>
<path d="M19.0378 12.0109C18.7258 12.0109 18.4722 11.7576 18.4722 11.4452V10.4839C18.4722 10.1719 18.7254 9.91822 19.0378 9.91822C19.3499 9.91822 19.6035 10.1715 19.6035 10.4839V11.4452C19.6031 11.7576 19.3503 12.0109 19.0378 12.0109Z" fill="#103E13"/>
<path d="M16.6598 12.0109C16.3478 12.0109 16.0941 11.7576 16.0941 11.4452V10.4839C16.0941 10.1719 16.3474 9.91822 16.6598 9.91822C16.9718 9.91822 17.2255 10.1715 17.2255 10.4839V11.4452C17.2255 11.7576 16.9722 12.0109 16.6598 12.0109Z" fill="#103E13"/>
<path d="M21.4161 15.9421C21.1041 15.9421 20.8504 15.6888 20.8504 15.3764V14.4155C20.8504 14.1035 21.1037 13.8498 21.4161 13.8498C21.7281 13.8498 21.9818 14.1031 21.9818 14.4155V15.3764C21.9818 15.6888 21.7281 15.9421 21.4161 15.9421Z" fill="#103E13"/>
<path d="M19.0378 15.9421C18.7258 15.9421 18.4722 15.6888 18.4722 15.3764V14.4155C18.4722 14.1035 18.7254 13.8498 19.0378 13.8498C19.3499 13.8498 19.6035 14.1031 19.6035 14.4155V15.3764C19.6031 15.6888 19.3503 15.9421 19.0378 15.9421Z" fill="#103E13"/>
<path d="M16.6598 15.9421C16.3478 15.9421 16.0941 15.6888 16.0941 15.3764V14.4155C16.0941 14.1035 16.3474 13.8498 16.6598 13.8498C16.9718 13.8498 17.2255 14.1031 17.2255 14.4155V15.3764C17.2255 15.6888 16.9722 15.9421 16.6598 15.9421Z" fill="#103E13"/>
<path d="M21.4161 19.8734C21.1041 19.8734 20.8504 19.6201 20.8504 19.3077V18.3464C20.8504 18.0344 21.1037 17.7807 21.4161 17.7807C21.7281 17.7807 21.9818 18.0339 21.9818 18.3464V19.3077C21.9818 19.6201 21.7281 19.8734 21.4161 19.8734Z" fill="#103E13"/>
<path d="M19.0378 19.8734C18.7258 19.8734 18.4722 19.6201 18.4722 19.3077V18.3464C18.4722 18.0344 18.7254 17.7807 19.0378 17.7807C19.3499 17.7807 19.6035 18.0339 19.6035 18.3464V19.3077C19.6031 19.6201 19.3503 19.8734 19.0378 19.8734Z" fill="#103E13"/>
<path d="M16.6598 19.8734C16.3478 19.8734 16.0941 19.6201 16.0941 19.3077V18.3464C16.0941 18.0344 16.3474 17.7807 16.6598 17.7807C16.9718 17.7807 17.2255 18.0339 17.2255 18.3464V19.3077C17.2255 19.6201 16.9722 19.8734 16.6598 19.8734Z" fill="#103E13"/>
<path d="M21.4161 23.8038C21.1041 23.8038 20.8504 23.5505 20.8504 23.2381V22.2768C20.8504 21.9648 21.1037 21.7111 21.4161 21.7111C21.7281 21.7111 21.9818 21.9644 21.9818 22.2768V23.2381C21.9818 23.5505 21.7281 23.8038 21.4161 23.8038Z" fill="#103E13"/>
<path d="M19.0378 23.8038C18.7258 23.8038 18.4722 23.5505 18.4722 23.2381V22.2768C18.4722 21.9648 18.7254 21.7111 19.0378 21.7111C19.3499 21.7111 19.6035 21.9644 19.6035 22.2768V23.2381C19.6031 23.5505 19.3503 23.8038 19.0378 23.8038Z" fill="#103E13"/>
<path d="M16.6598 23.8038C16.3478 23.8038 16.0941 23.5505 16.0941 23.2381V22.2768C16.0941 21.9648 16.3474 21.7111 16.6598 21.7111C16.9718 21.7111 17.2255 21.9644 17.2255 22.2768V23.2381C17.2255 23.5505 16.9722 23.8038 16.6598 23.8038Z" fill="#103E13"/>
<path d="M21.4161 27.735C21.1041 27.735 20.8504 27.4817 20.8504 27.1693V26.2084C20.8504 25.8964 21.1037 25.6427 21.4161 25.6427C21.7281 25.6427 21.9818 25.896 21.9818 26.2084V27.1693C21.9818 27.4813 21.7281 27.735 21.4161 27.735Z" fill="#103E13"/>
<path d="M19.0378 27.735C18.7258 27.735 18.4722 27.4817 18.4722 27.1693V26.2084C18.4722 25.8964 18.7254 25.6427 19.0378 25.6427C19.3499 25.6427 19.6035 25.896 19.6035 26.2084V27.1693C19.6031 27.4813 19.3503 27.735 19.0378 27.735Z" fill="#103E13"/>
<path d="M16.6598 27.735C16.3478 27.735 16.0941 27.4817 16.0941 27.1693L16.0945 26.2084C16.0945 25.8964 16.3478 25.6427 16.6602 25.6427C16.9722 25.6427 17.2259 25.896 17.2259 26.2084V27.1693C17.2255 27.4813 16.9722 27.735 16.6598 27.735Z" fill="#103E13"/>
<path d="M0.500244 31.6472C0.500244 31.9592 0.753493 32.2128 1.06592 32.2128H35.5137C35.8257 32.2128 36.0793 31.9596 36.0793 31.6472C36.0793 31.3352 35.8261 31.0815 35.5137 31.0815H34.468V14.8402C34.468 14.5282 34.2147 14.2745 33.9023 14.2745L24.6666 14.2749V2.5658C24.6666 2.36778 24.5632 2.18475 24.3944 2.08218C24.226 1.97923 24.0153 1.97291 23.8402 2.06403L13.3398 7.53102C13.1525 7.62845 13.0357 7.82174 13.0357 8.03279V18.2605H2.87365C2.56163 18.2605 2.30797 18.5137 2.30797 18.8261V31.0816H1.06466C0.752635 31.0812 0.500244 31.3348 0.500244 31.6472ZM24.6668 22.8423H33.3372V31.082L24.6668 31.0816V22.8423ZM24.6668 18.9113H33.3372V21.7113L24.6668 21.7109V18.9113ZM24.6668 15.4057H33.3372V17.7808H24.6668V15.4057ZM14.1664 8.37626L23.5351 3.49822V31.0811H14.1664V8.37626ZM6.23565 26.5635C6.23565 25.3896 7.1658 24.4342 8.30936 24.4342C9.45291 24.4342 10.3835 25.3892 10.3835 26.5635V31.0818H6.23565V26.5635ZM3.43929 19.3916H13.0355V31.0816H11.5148V26.5633C11.5148 24.7657 10.0774 23.3031 8.30936 23.3031C6.54213 23.3031 5.10472 24.7653 5.10472 26.5633V31.0816H3.43929V19.3916Z" fill="#103E13"/>
</g>
</svg>
