<svg width="59" height="49" viewBox="0 0 59 49" fill="none" xmlns="http://www.w3.org/2000/svg">
<g id="Vector">
<path d="M58.0159 31C58.0159 40.9411 49.957 49 40.0159 49L13.0159 49C10.2545 49 8.0159 46.7614 8.0159 44L8.0159 10C8.0159 4.47715 12.4931 -4.82822e-07 18.0159 0L53.0159 3.0598e-06C55.7773 3.30121e-06 58.0159 2.23858 58.0159 5V31Z" fill="#E8F5E9"/>
<path d="M21.3275 16.6447C21.0867 16.6447 20.8631 16.5785 20.6645 16.472V16.4748C20.6645 16.8537 20.5173 17.2094 20.2501 17.4759C19.9829 17.7431 19.6274 17.8903 19.249 17.8903C19.0047 17.8903 18.7783 17.8225 18.5776 17.7131C18.5573 18.0597 18.4188 18.3836 18.1716 18.631C17.9045 18.8982 17.549 19.0455 17.1703 19.0455C16.418 19.0455 15.8071 18.4541 15.7631 17.7129C15.5303 17.8387 15.2672 17.9047 14.9957 17.8872C14.2557 17.8387 13.6761 17.1993 13.6761 16.4312V10.0646L12.9512 11.3205C12.6751 11.8009 12.1582 12.0992 11.6017 12.0992C11.3305 12.0992 11.0626 12.028 10.8254 11.8921C10.5299 11.7208 10.3186 11.4459 10.2307 11.1169C10.1424 10.7878 10.1881 10.4436 10.3589 10.1486C10.3591 10.1486 12.7309 6.04142 12.8756 5.78913C12.8928 5.7512 12.9418 5.64118 12.9835 5.54741C13.0233 5.45788 13.0575 5.366 13.0902 5.27364C13.8055 3.25436 15.5765 2.00003 17.7124 2.00003C20.4861 2.00003 22.7427 4.44693 22.7427 7.45462L22.7429 15.229C22.7429 15.6073 22.5959 15.9629 22.3289 16.2303C22.0618 16.4975 21.7063 16.6447 21.3275 16.6447ZM17.7125 2.75217C15.8771 2.75217 14.4143 3.78883 13.7992 5.52519C13.7598 5.63544 13.7188 5.7457 13.671 5.85314C13.5322 6.16437 13.5322 6.16437 13.4931 6.20912L13.4879 6.20465C13.2943 6.57006 12.7189 7.5664 11.0102 10.5251C10.9399 10.6464 10.9213 10.7873 10.9571 10.922C10.9934 11.0568 11.0804 11.1704 11.2008 11.2399C11.5744 11.4545 12.0861 11.3159 12.2991 10.9449L13.7266 8.47344C13.8119 8.32619 13.9843 8.25386 14.1497 8.29863C14.3142 8.34268 14.4284 8.49182 14.4284 8.66192V16.4314C14.4284 16.798 14.705 17.1144 15.045 17.1368C15.241 17.1472 15.4239 17.0814 15.5612 16.9443C15.6861 16.8195 15.7549 16.6531 15.7549 16.4753V11.3939C15.7549 11.1861 15.9233 11.0176 16.1311 11.0176C16.3389 11.0176 16.5074 11.1858 16.5074 11.3939L16.5071 17.6302C16.5071 17.9959 16.8047 18.2934 17.1704 18.2934C17.348 18.2934 17.5148 18.2247 17.6399 18.0998C17.7648 17.9747 17.8336 17.8079 17.8336 17.6302V11.3939C17.8336 11.1861 18.0018 11.0176 18.2098 11.0176C18.4176 11.0176 18.5861 11.1858 18.5861 11.3939L18.5858 16.4752C18.5858 16.8406 18.8834 17.1382 19.2493 17.1382C19.4267 17.1382 19.593 17.0692 19.7188 16.9438C19.8437 16.8192 19.9125 16.6529 19.9125 16.475V11.3936C19.9125 11.1858 20.0807 11.0174 20.2887 11.0174C20.4965 11.0174 20.665 11.1856 20.665 11.3936L20.6645 15.2292C20.6645 15.595 20.9621 15.8926 21.3275 15.8926C21.5053 15.8926 21.6717 15.8236 21.7965 15.6989C21.9219 15.5736 21.9904 15.4068 21.9904 15.2292L21.9907 7.4548C21.9907 4.86206 20.0715 2.75217 17.7125 2.75217Z" fill="#103E13"/>
<path d="M6.54497 22.0481L12.0047 18.7728C12.6629 18.3775 13.5099 18.5455 13.9321 19.1554C14.0862 19.3776 14.1649 19.6365 14.1771 19.9002C14.3807 19.7939 14.6022 19.7362 14.8276 19.7362C14.9431 19.7362 15.059 19.7506 15.1735 19.7791C15.5403 19.8707 15.8494 20.0999 16.0438 20.4241C16.2384 20.7488 16.2952 21.1292 16.2035 21.4956C16.1189 21.8347 15.9128 22.12 15.6261 22.3158C15.8266 22.434 15.9995 22.5954 16.1225 22.8009C16.3171 23.1255 16.3739 23.5058 16.2824 23.8726C16.1908 24.239 15.9616 24.5481 15.6369 24.7429L15.635 24.7441C15.832 24.8622 16.0019 25.0219 16.1234 25.2243C16.3183 25.5489 16.375 25.9294 16.2834 26.2962C16.1915 26.6628 15.9623 26.9719 15.6381 27.1665L8.9717 31.1658C7.72751 31.912 6.28916 32.1695 4.92223 31.8903C3.54305 31.6085 2.40084 30.8158 1.70633 29.658C0.607248 27.8262 0.771963 25.662 2.13536 24.0102C2.19779 23.9348 2.25928 23.858 2.31512 23.7784C2.37426 23.6943 2.44329 23.5953 2.46684 23.5614C2.60796 23.3093 4.91073 19.1604 4.91049 19.1609C5.14303 18.7413 5.57888 18.5038 6.02839 18.504C6.23807 18.504 6.45082 18.5556 6.64708 18.6645C6.88409 18.7969 7.08318 18.9898 7.22241 19.2224C7.50867 19.6995 7.5188 20.2965 7.24927 20.7797L6.54497 22.0481ZM6.57772 19.6092C6.50468 19.4874 6.40432 19.3903 6.28157 19.3215C6.02783 19.1811 5.70836 19.2725 5.56867 19.5253C3.92092 22.4938 3.35922 23.5055 3.14245 23.8655L3.1474 23.8667C3.12926 23.927 3.12926 23.927 2.93089 24.2104C2.86351 24.3063 2.79024 24.3984 2.71555 24.4891C1.54319 25.9095 1.40706 27.697 2.35108 29.271C2.93584 30.2459 3.90227 30.9143 5.07247 31.1532C6.25539 31.3938 7.50218 31.1699 8.58432 30.5207L15.2513 26.5212C15.4035 26.43 15.511 26.2851 15.5538 26.1134C15.5967 25.9418 15.5701 25.7635 15.4787 25.6113C15.2907 25.298 14.8824 25.195 14.569 25.3837L11.2801 27.3569C11.102 27.4638 10.8706 27.4063 10.7639 27.228C10.6569 27.0499 10.7147 26.8187 10.8928 26.7118L15.2502 24.0978C15.4023 24.0064 15.51 23.8615 15.5529 23.6902C15.5958 23.5185 15.5691 23.3399 15.4777 23.1879C15.2895 22.8744 14.8812 22.7723 14.5681 22.9604L10.2107 25.5743C10.0321 25.6815 9.80148 25.6236 9.69452 25.4455C9.58756 25.2673 9.64552 25.0362 9.82339 24.9293L15.1712 21.7211C15.3234 21.6297 15.4309 21.4851 15.4737 21.3133C15.5166 21.1418 15.49 20.9635 15.3988 20.8113C15.3076 20.6593 15.1627 20.5519 14.991 20.509C14.8183 20.4661 14.6407 20.4927 14.4889 20.5837L13.499 21.1776C13.4992 21.1776 13.4987 21.1776 13.499 21.1776L9.14112 23.7918C8.96254 23.8993 8.73165 23.8413 8.62492 23.663C8.51796 23.4849 8.57592 23.2537 8.75379 23.1468L13.1112 20.5328C13.2634 20.4414 13.371 20.2965 13.4139 20.1252C13.461 19.9372 13.4252 19.745 13.3135 19.5838C13.1199 19.3037 12.7057 19.2292 12.3917 19.4179L5.72948 23.4147C5.58364 23.5018 5.39682 23.4806 5.27454 23.3626C5.15203 23.2443 5.12446 23.0584 5.20692 22.9098L6.59225 20.4138C6.73126 20.1643 6.72591 19.8561 6.57772 19.6092Z" fill="#103E13"/>
<path d="M32.634 29.6578C31.9397 30.8157 30.7978 31.6083 29.4183 31.8901C28.0512 32.1688 26.6133 31.9117 25.3689 31.1656L18.7019 27.1661C18.3774 26.9715 18.148 26.6624 18.0561 26.2953C17.9649 25.9289 18.0219 25.5484 18.2163 25.2243C18.3376 25.0216 18.5077 24.8619 18.7049 24.7439L18.703 24.7427C18.3786 24.5481 18.1491 24.239 18.0578 23.8724C17.9659 23.5058 18.0229 23.125 18.2175 22.8004C18.3428 22.5919 18.5146 22.4289 18.7106 22.3132C18.426 22.1174 18.221 21.8331 18.1367 21.4957C18.0448 21.1289 18.1018 20.7483 18.2964 20.4242C18.4908 20.0997 18.8001 19.8705 19.1667 19.7789C19.2812 19.7501 19.3974 19.736 19.5124 19.736C19.7381 19.7362 19.9595 19.7935 20.1631 19.9C20.1756 19.6363 20.254 19.3774 20.4081 19.1552C20.8305 18.5458 21.6768 18.3771 22.336 18.7726L27.7955 22.0474L27.0918 20.7799C26.8218 20.296 26.8317 19.699 27.118 19.2216C27.2574 18.9893 27.4567 18.7964 27.6949 18.6628C27.8907 18.5544 28.1027 18.5031 28.3119 18.5031C28.7612 18.5033 29.1976 18.7403 29.4298 19.1599C30.2394 20.6186 31.767 23.3694 31.8744 23.5614C31.8972 23.5946 31.9663 23.6936 32.0254 23.7777C32.0817 23.8575 32.1425 23.9339 32.2054 24.0098C33.5686 25.6622 33.733 27.8262 32.634 29.6578ZM31.625 24.4892C31.55 24.3985 31.4765 24.3059 31.4096 24.2105C31.2061 23.9217 31.2009 23.9141 31.1856 23.8385C30.9476 23.4448 30.3671 22.3997 28.7714 19.5249C28.6315 19.2726 28.3134 19.1805 28.0601 19.3204C27.9355 19.3901 27.8354 19.4875 27.7624 19.6093C27.6144 19.8559 27.6087 20.1641 27.7485 20.4143L29.1333 22.9095C29.216 23.0584 29.1884 23.2441 29.0662 23.3623C28.9441 23.4809 28.7575 23.5016 28.611 23.4144L21.9488 19.4177C21.6347 19.2295 21.2208 19.3032 21.0267 19.5836C20.915 19.7447 20.8794 19.937 20.9261 20.1247C20.9689 20.2963 21.0766 20.4409 21.229 20.5323C21.2295 20.5326 21.2298 20.533 21.2302 20.5333L25.5862 23.1465C25.7643 23.2535 25.822 23.4844 25.7151 23.6627C25.6081 23.8406 25.3775 23.8988 25.1989 23.7916L19.851 20.5835C19.6993 20.4925 19.5207 20.4657 19.3492 20.5088C19.1772 20.5517 19.0326 20.6591 18.9414 20.8115C18.85 20.9635 18.8236 21.1418 18.866 21.3133C18.9089 21.4849 19.0166 21.6298 19.1688 21.7212L24.5164 24.9293C24.6945 25.0363 24.7522 25.2672 24.6452 25.4455C24.5383 25.6234 24.3076 25.6814 24.129 25.5744L19.7721 22.9604C19.4588 22.772 19.0507 22.8742 18.8623 23.188C18.7708 23.3402 18.7445 23.5186 18.7869 23.6901C18.8297 23.8616 18.9374 24.0063 19.0898 24.0979L23.4467 26.7119C23.6248 26.8188 23.6826 27.0497 23.5756 27.2281C23.4686 27.4059 23.238 27.4644 23.0594 27.3569L19.7707 25.3838C19.619 25.2928 19.4411 25.266 19.2687 25.3091C19.0971 25.352 18.952 25.4594 18.8608 25.6114C18.7697 25.7636 18.743 25.9422 18.7855 26.1134C18.8283 26.285 18.936 26.4296 19.0884 26.5213L25.7554 30.5207C26.8373 31.1698 28.085 31.3945 29.2673 31.1533C30.4372 30.9144 31.4037 30.246 31.9884 29.2711C32.9334 27.6968 32.797 25.9092 31.625 24.4892Z" fill="#103E13"/>
</g>
</svg>
