<svg width="32" height="33" viewBox="0 0 32 33" fill="none" xmlns="http://www.w3.org/2000/svg">
<path opacity="0.1" fill-rule="evenodd" clip-rule="evenodd" d="M0 16.0708C0 7.23425 7.16344 0.0708008 16 0.0708008C24.8366 0.0708008 32 7.23425 32 16.0708C32 24.9074 24.8366 32.0708 16 32.0708C7.16344 32.0708 0 24.9074 0 16.0708Z" fill="white"/>
<path fill-rule="evenodd" clip-rule="evenodd" d="M16.0008 7.5376C13.6833 7.5376 13.3924 7.54773 12.4822 7.58915C11.5737 7.63075 10.9536 7.77458 10.411 7.9856C9.8498 8.20356 9.3737 8.49512 8.89939 8.96961C8.42471 9.44393 8.13316 9.92002 7.91449 10.4811C7.70293 11.0239 7.55893 11.6441 7.51804 12.5522C7.47733 13.4625 7.46666 13.7535 7.46666 16.071C7.46666 18.3886 7.47697 18.6785 7.51822 19.5887C7.55999 20.4972 7.70382 21.1173 7.91466 21.6599C8.1328 22.2211 8.42436 22.6972 8.89885 23.1715C9.37299 23.6462 9.84908 23.9385 10.41 24.1564C10.9529 24.3675 11.5732 24.5113 12.4815 24.5529C13.3917 24.5943 13.6824 24.6044 15.9997 24.6044C18.3174 24.6044 18.6074 24.5943 19.5176 24.5529C20.4261 24.5113 21.0469 24.3675 21.5898 24.1564C22.1509 23.9385 22.6263 23.6462 23.1004 23.1715C23.5751 22.6972 23.8667 22.2211 24.0853 21.6601C24.2951 21.1173 24.4391 20.497 24.4818 19.5889C24.5227 18.6787 24.5333 18.3886 24.5333 16.071C24.5333 13.7535 24.5227 13.4626 24.4818 12.5524C24.4391 11.644 24.2951 11.0239 24.0853 10.4813C23.8667 9.92002 23.5751 9.44393 23.1004 8.96961C22.6258 8.49494 22.1511 8.20338 21.5893 7.9856C21.0453 7.77458 20.4248 7.63075 19.5164 7.58915C18.6062 7.54773 18.3164 7.5376 15.9981 7.5376H16.0008ZM15.2352 9.07537C15.4624 9.07501 15.716 9.07537 16.0008 9.07537C18.2792 9.07537 18.5492 9.08355 19.449 9.12443C20.281 9.16248 20.7325 9.3015 21.0333 9.4183C21.4316 9.57297 21.7155 9.75786 22.014 10.0565C22.3126 10.3552 22.4975 10.6397 22.6526 11.0379C22.7694 11.3383 22.9086 11.7899 22.9464 12.6219C22.9873 13.5215 22.9962 13.7917 22.9962 16.069C22.9962 18.3464 22.9873 18.6166 22.9464 19.5162C22.9084 20.3482 22.7694 20.7998 22.6526 21.1002C22.4979 21.4984 22.3126 21.782 22.014 22.0805C21.7153 22.3792 21.4317 22.564 21.0333 22.7187C20.7329 22.836 20.281 22.9747 19.449 23.0128C18.5494 23.0536 18.2792 23.0625 16.0008 23.0625C13.7222 23.0625 13.4521 23.0536 12.5525 23.0128C11.7205 22.9744 11.269 22.8353 10.968 22.7185C10.5698 22.5639 10.2853 22.379 9.98665 22.0803C9.68798 21.7816 9.50309 21.4979 9.34806 21.0995C9.23126 20.799 9.09206 20.3475 9.0542 19.5155C9.01331 18.6159 9.00513 18.3457 9.00513 16.0669C9.00513 13.7881 9.01331 13.5193 9.0542 12.6198C9.09224 11.7878 9.23126 11.3362 9.34806 11.0354C9.50273 10.6372 9.68798 10.3527 9.98665 10.054C10.2853 9.75537 10.5698 9.57048 10.968 9.41546C11.2688 9.29813 11.7205 9.15946 12.5525 9.12123C13.3398 9.08568 13.6448 9.07501 15.2352 9.07323V9.07537ZM20.5558 10.4923C19.9905 10.4923 19.5318 10.9504 19.5318 11.5159C19.5318 12.0813 19.9905 12.5399 20.5558 12.5399C21.1212 12.5399 21.5798 12.0813 21.5798 11.5159C21.5798 10.9506 21.1212 10.4923 20.5558 10.4923ZM16.0008 11.6887C13.5807 11.6887 11.6185 13.6509 11.6185 16.071C11.6185 18.4911 13.5807 20.4524 16.0008 20.4524C18.4209 20.4524 20.3824 18.4911 20.3824 16.071C20.3824 13.6509 18.4209 11.6887 16.0008 11.6887ZM16.0008 13.2265C17.5716 13.2265 18.8452 14.5 18.8452 16.071C18.8452 17.6419 17.5716 18.9155 16.0008 18.9155C14.4297 18.9155 13.1563 17.6419 13.1563 16.071C13.1563 14.5 14.4297 13.2265 16.0008 13.2265Z" fill="white"/>
</svg>
