<svg width="32" height="33" viewBox="0 0 32 33" fill="none" xmlns="http://www.w3.org/2000/svg">
<path opacity="0.1" fill-rule="evenodd" clip-rule="evenodd" d="M0 16.0708C0 7.23425 7.16344 0.0708008 16 0.0708008C24.8366 0.0708008 32 7.23425 32 16.0708C32 24.9074 24.8366 32.0708 16 32.0708C7.16344 32.0708 0 24.9074 0 16.0708Z" fill="white"/>
<path fill-rule="evenodd" clip-rule="evenodd" d="M24.5333 16.0591C24.5333 16.6362 24.4746 17.2125 24.3592 17.7742C24.2467 18.3226 24.08 18.861 23.8616 19.3757C23.6483 19.8813 23.3837 20.3685 23.0745 20.8229C22.77 21.2744 22.4191 21.6979 22.0336 22.0841C21.6474 22.4685 21.2224 22.8184 20.7711 23.1243C20.3152 23.4313 19.8273 23.6955 19.3214 23.9099C18.806 24.127 18.2664 24.2935 17.7184 24.4058C17.1559 24.5215 16.5775 24.5806 15.9996 24.5806C15.4212 24.5806 14.8429 24.5215 14.2812 24.4058C13.7324 24.2935 13.1928 24.127 12.6778 23.9099C12.1719 23.6955 11.6836 23.4313 11.2277 23.1243C10.7764 22.8184 10.3514 22.4685 9.96597 22.0841C9.58013 21.6979 9.22926 21.2744 8.92425 20.8229C8.61673 20.3685 8.3517 19.8813 8.13754 19.3757C7.91917 18.861 7.7521 18.3226 7.63917 17.7742C7.52501 17.2125 7.46666 16.6362 7.46666 16.0591C7.46666 15.4816 7.52498 14.904 7.63921 14.3435C7.75213 13.7951 7.9192 13.2559 8.13757 12.742C8.35173 12.2361 8.61677 11.7484 8.92428 11.294C9.2293 10.8422 9.58017 10.4194 9.96601 10.0329C10.3514 9.64839 10.7765 9.29932 11.2277 8.99392C11.6836 8.68558 12.172 8.4214 12.6778 8.20667C13.1928 7.98902 13.7324 7.82219 14.2812 7.7107C14.8429 7.59586 15.4213 7.5376 15.9996 7.5376C16.5776 7.5376 17.1559 7.59586 17.7185 7.7107C18.2664 7.82222 18.806 7.98905 19.3215 8.20667C19.8273 8.42136 20.3153 8.68558 20.7711 8.99392C21.2224 9.29932 21.6474 9.64839 22.0337 10.0329C22.4191 10.4194 22.77 10.8422 23.0746 11.294C23.3837 11.7484 23.6483 12.2361 23.8616 12.742C24.08 13.2559 24.2467 13.7951 24.3592 14.3435C24.4746 14.904 24.5333 15.4816 24.5333 16.0591ZM12.8902 9.47698C10.858 10.4353 9.34129 12.3051 8.86834 14.5587C9.06046 14.5603 12.0973 14.5986 15.5962 13.6703C14.3349 11.4326 12.9873 9.60642 12.8902 9.47698ZM16.2 14.7909C12.4477 15.9126 8.8471 15.8319 8.71794 15.8269C8.71583 15.9051 8.71209 15.9808 8.71209 16.0591C8.71209 17.9285 9.41838 19.6328 10.5793 20.9215C10.5768 20.9177 12.5711 17.3847 16.5038 16.1149C16.5987 16.0832 16.6954 16.0549 16.7913 16.0275C16.6084 15.6139 16.4087 15.1995 16.2 14.7909ZM20.8123 10.5975C19.5293 9.46781 17.8447 8.78256 15.9996 8.78256C15.4075 8.78256 14.8328 8.85413 14.2824 8.98644C14.3916 9.13292 15.7604 10.9462 17.0067 13.2313C19.7565 12.202 20.7944 10.6241 20.8123 10.5975ZM17.288 17.2333C17.2718 17.2387 17.2556 17.2433 17.2397 17.2491C12.94 18.7459 11.5358 21.7623 11.5206 21.7953C12.7578 22.756 14.3095 23.3356 15.9996 23.3356C17.0088 23.3356 17.9701 23.1305 18.8447 22.7589C18.7368 22.1231 18.3135 19.8946 17.288 17.2333ZM20.0719 22.094C21.7082 20.9914 22.8703 19.2405 23.1945 17.2124C23.0445 17.1642 21.0057 16.5197 18.6534 16.8962C19.6093 19.5193 19.9977 21.6555 20.0719 22.094ZM17.5676 14.3157C17.7368 14.6627 17.9006 15.0159 18.0518 15.3709C18.1056 15.4982 18.1581 15.623 18.2093 15.7478C20.7128 15.4333 23.1791 15.9625 23.2846 15.9841C23.2679 14.2591 22.65 12.6759 21.6274 11.4364C21.6137 11.4559 20.4449 13.1423 17.5676 14.3157Z" fill="white"/>
</svg>
