<svg width="18" height="19" viewBox="0 0 18 19" fill="none" xmlns="http://www.w3.org/2000/svg">
<g id="Essential Icons / send">
<path id="Vector" fill-rule="evenodd" clip-rule="evenodd" d="M17.0303 1.36862C17.2341 1.57235 17.3031 1.87477 17.2079 2.14671L11.9579 17.1467C11.8563 17.437 11.5878 17.6358 11.2806 17.6483C10.9733 17.6609 10.6895 17.4846 10.5646 17.2036L7.6818 10.7171L1.1954 7.83431C0.91439 7.70941 0.738092 7.42563 0.750627 7.11837C0.763163 6.81112 0.961991 6.54264 1.25224 6.44105L16.2522 1.19105C16.5242 1.09587 16.8266 1.16489 17.0303 1.36862ZM9.14456 10.315L11.1671 14.8656L14.7064 4.75321L9.14456 10.315ZM13.6457 3.69255L3.53331 7.2319L8.0839 9.25439L13.6457 3.69255Z" fill="white"/>
</g>
</svg>
