<svg width="48" height="48" viewBox="0 0 48 48" fill="none" xmlns="http://www.w3.org/2000/svg">
<g id="Icon">
<path id="Vector" d="M16.4999 8.73584C18.8587 8.73584 21.161 9.46162 23.0936 10.814C25.0259 12.1662 26.4955 14.0798 27.3036 16.2954C28.1117 18.5114 28.2195 20.9227 27.6112 23.2017C27.0029 25.4805 25.7081 27.5172 23.9032 29.0356L23.2958 29.5474L24.0184 29.8745C26.9917 31.22 29.5508 33.3371 31.4286 36.0063L31.4354 36.0161L31.4432 36.0259C31.589 36.2127 31.6953 36.4276 31.7557 36.6567C31.801 36.8286 31.8205 37.0063 31.8124 37.1831L31.7948 37.3599C31.7687 37.5358 31.7158 37.7063 31.6385 37.8657L31.5536 38.021C31.4292 38.2228 31.265 38.3972 31.0712 38.5337C30.9258 38.636 30.7662 38.716 30.5975 38.77L30.4257 38.8149C30.1938 38.864 29.954 38.8661 29.7216 38.8198C29.4892 38.7735 29.2685 38.6795 29.0731 38.5454C28.8778 38.4113 28.7115 38.2388 28.5848 38.0386L28.579 38.0288L28.5721 38.019L28.3114 37.6597C27.0725 36.0034 25.4989 34.6264 23.6932 33.6177L23.3026 33.4067C21.2014 32.3146 18.8679 31.7446 16.4999 31.7446C14.1319 31.7446 11.7983 32.3146 9.69714 33.4067C7.72737 34.4306 6.01576 35.885 4.68835 37.6597L4.42859 38.019L4.42761 38.02C4.30767 38.1923 4.15743 38.3415 3.98523 38.4595L3.80554 38.5669C3.61919 38.6639 3.41731 38.7259 3.20984 38.7505L3.00183 38.7622H2.99792C2.68402 38.7632 2.37671 38.6782 2.10925 38.5171L1.99695 38.4429L1.995 38.4419L1.85828 38.3345C1.55451 38.0714 1.34853 37.7104 1.27917 37.311C1.19996 36.8545 1.30587 36.3855 1.57214 36.0063L1.57117 36.0054C3.44896 33.3364 6.00823 31.2199 8.98132 29.8745L9.70398 29.5474L9.09656 29.0356C7.29172 27.5172 5.99686 25.4805 5.38855 23.2017C4.81828 21.0651 4.87716 18.8125 5.55261 16.7134L5.69617 16.2954C6.4538 14.2181 7.793 12.4063 9.54968 11.0737L9.9071 10.814C11.8397 9.46164 14.1411 8.73586 16.4999 8.73584ZM28.538 8.69971L28.6659 9.18311L28.6747 9.18115C29.5585 8.92955 30.4692 8.78688 31.3866 8.75635L31.7802 8.74951H31.7831C33.9956 8.74316 36.1596 9.37638 38.0165 10.5679L38.3837 10.814C40.1986 12.0798 41.6067 13.8411 42.4423 15.8833L42.6014 16.2954C43.3599 18.374 43.5007 20.6243 43.0116 22.7759L42.9052 23.2046C42.2939 25.4843 40.9953 27.5207 39.1854 29.0356L38.5751 29.5464L39.2997 29.8745C42.087 31.1359 44.5102 33.0754 46.3495 35.5122L46.7098 36.0063L46.7118 36.0093C46.8452 36.1959 46.94 36.4076 46.9911 36.6313C47.0294 36.7991 47.0426 36.9711 47.0302 37.1421L47.0096 37.313C46.9704 37.5389 46.886 37.7545 46.7626 37.9478C46.6699 38.0929 46.5563 38.2232 46.4257 38.3345L46.2899 38.439L46.2841 38.4429C45.992 38.6516 45.642 38.7624 45.2831 38.7612C45.0729 38.7599 44.8654 38.7218 44.6698 38.6479L44.4774 38.563C44.2906 38.4658 44.1238 38.3355 43.9833 38.1802L43.8514 38.0171C42.4881 36.0832 40.6809 34.5041 38.5809 33.4136C36.6119 32.3911 34.4393 31.8262 32.2255 31.7573L31.7821 31.7495H31.7811C31.375 31.7495 30.9831 31.6092 30.6718 31.354L30.5438 31.2378C30.2156 30.9096 30.0311 30.4636 30.0311 29.9995C30.0312 29.5936 30.1726 29.2024 30.4276 28.8911L30.5438 28.7622C30.872 28.4341 31.3171 28.2495 31.7811 28.2495C33.7702 28.2495 35.6828 27.5089 37.1503 26.1802L37.4384 25.9067C38.9386 24.4065 39.7811 22.3712 39.7811 20.2495C39.781 18.2605 39.0405 16.3478 37.7118 14.8804L37.4384 14.5933C35.9381 13.093 33.9029 12.2495 31.7811 12.2495C31.1413 12.2484 30.5041 12.3262 29.8837 12.48L29.619 12.5503L29.6132 12.5522C29.4465 12.6019 29.2737 12.6258 29.1005 12.6245L28.9266 12.6147C28.7534 12.5962 28.5843 12.5522 28.4247 12.4839L28.2694 12.4077C28.1169 12.3238 27.978 12.2177 27.8573 12.0933L27.7421 11.9634C27.5978 11.7816 27.4915 11.5725 27.4286 11.3491C27.3814 11.1815 27.3591 11.008 27.3632 10.8345L27.3759 10.6616C27.3971 10.4888 27.4438 10.3201 27.5145 10.1616L27.5936 10.0073C27.7087 9.80579 27.8627 9.62923 28.0468 9.48779C28.2307 9.34643 28.4407 9.2425 28.6649 9.18311L28.538 8.69971ZM18.0604 12.4038C16.5086 12.0952 14.9001 12.2534 13.4384 12.8589C12.068 13.4265 10.8844 14.3632 10.0175 15.562L9.84851 15.8052C8.96953 17.1207 8.49996 18.6674 8.49988 20.2495C8.49988 22.3711 9.34252 24.4065 10.8427 25.9067C12.3429 27.407 14.3782 28.2495 16.4999 28.2495C17.9832 28.2495 19.4355 27.8378 20.6952 27.062L20.9442 26.9019C22.2598 26.0228 23.286 24.7728 23.8915 23.311C24.459 21.9407 24.633 20.4415 24.3983 18.981L24.3466 18.689C24.0571 17.2341 23.369 15.8903 22.3622 14.8062L22.1571 14.5933C21.1083 13.5445 19.7897 12.8095 18.3505 12.4673L18.0604 12.4038Z" fill="#4CAF4F" stroke="#4CAF4F"/>
</g>
</svg>
