<svg width="32" height="33" viewBox="0 0 32 33" fill="none" xmlns="http://www.w3.org/2000/svg">
<path opacity="0.1" fill-rule="evenodd" clip-rule="evenodd" d="M0 16.0708C0 7.23425 7.16344 0.0708008 16 0.0708008C24.8366 0.0708008 32 7.23425 32 16.0708C32 24.9074 24.8366 32.0708 16 32.0708C7.16344 32.0708 0 24.9074 0 16.0708Z" fill="white"/>
<path fill-rule="evenodd" clip-rule="evenodd" d="M15.5208 13.0759L15.5544 13.6295L14.9948 13.5617C12.9579 13.3019 11.1784 12.4206 9.66756 10.9404L8.92891 10.206L8.73865 10.7484C8.33575 11.9573 8.59316 13.2341 9.43253 14.0928C9.8802 14.5673 9.77948 14.6351 9.00725 14.3527C8.73865 14.2623 8.50363 14.1945 8.48124 14.2284C8.4029 14.3075 8.6715 15.3356 8.88414 15.7424C9.17513 16.3073 9.76828 16.861 10.4174 17.1886L10.9658 17.4485L10.3167 17.4598C9.68994 17.4598 9.66756 17.4711 9.73471 17.7084C9.95854 18.4428 10.8427 19.2224 11.8276 19.5614L12.5214 19.7986L11.9171 20.1602C11.0218 20.6799 9.96973 20.9737 8.91772 20.9963C8.41409 21.0076 8 21.0528 8 21.0867C8 21.1997 9.36538 21.8324 10.16 22.081C12.5438 22.8154 15.3753 22.499 17.5017 21.2449C19.0126 20.3523 20.5235 18.5784 21.2286 16.861C21.6091 15.9458 21.9896 14.2736 21.9896 13.4714C21.9896 12.9516 22.0232 12.8838 22.6499 12.2624C23.0192 11.9008 23.3662 11.5054 23.4333 11.3924C23.5452 11.1777 23.534 11.1777 22.9633 11.3698C22.012 11.7088 21.8777 11.6636 22.3477 11.1551C22.6947 10.7936 23.1088 10.1382 23.1088 9.94616C23.1088 9.91226 22.9409 9.96876 22.7506 10.0704C22.5492 10.1834 22.1015 10.3529 21.7658 10.4546L21.1614 10.6467L20.613 10.2738C20.3108 10.0704 19.8856 9.84447 19.6617 9.77668C19.0909 9.6185 18.218 9.6411 17.7032 9.82187C16.3042 10.3303 15.4201 11.641 15.5208 13.0759Z" fill="white"/>
</svg>
